<svg xmlns="http://www.w3.org/2000/svg" xmlns:xlink="http://www.w3.org/1999/xlink" width="1920" height="1080" viewBox="0 0 1920 1080">
  <defs>
    <clipPath id="clip-Web_1920_1">
      <rect width="1920" height="1080"/>
    </clipPath>
  </defs>
  <g id="Web_1920_1" data-name="Web 1920 – 1" clip-path="url(#clip-Web_1920_1)">
    <rect width="1920" height="1080" fill="#fff"/>
    <path id="Trazado_2" data-name="Trazado 2" d="M1265.332,356c-22.533,209.066,121.333,349.466,208,420.533S1981.2,1001.866,1960.4,1215.066s-800.8,221.866-800.8,221.866H2215.2V356Z" transform="translate(-295 -356)" fill="#850000" stroke="#707070" stroke-width="1" style="mix-blend-mode: darken;isolation: isolate"/>
    <g id="Rectángulo_1" data-name="Rectángulo 1" transform="matrix(0.809, 0.588, -0.588, 0.809, 1758.081, 789.09)" fill="none" stroke="#8d0000" stroke-width="4">
      <rect width="170" height="160" stroke="none"/>
      <rect x="2" y="2" width="166" height="156" fill="none"/>
    </g>
    <g id="Rectángulo_2" data-name="Rectángulo 2" transform="matrix(0.695, -0.719, 0.719, 0.695, 1375.232, 965.344)" fill="none" stroke="#8d0000" stroke-width="4">
      <rect width="170" height="160" stroke="none"/>
      <rect x="2" y="2" width="166" height="156" fill="none"/>
    </g>
    <g id="Rectángulo_3" data-name="Rectángulo 3" transform="matrix(0.545, 0.839, -0.839, 0.545, 1467.932, 559.446)" fill="none" stroke="#8d0000" stroke-width="4">
      <rect width="112" height="111" stroke="none"/>
      <rect x="2" y="2" width="108" height="107" fill="none"/>
    </g>
    <g id="Rectángulo_4" data-name="Rectángulo 4" transform="matrix(0.809, 0.588, -0.588, 0.809, 1274.582, 716.82)" fill="none" stroke="#8d0000" stroke-width="4">
      <rect width="97" height="91" stroke="none"/>
      <rect x="2" y="2" width="93" height="87" fill="none"/>
    </g>
    <g id="Rectángulo_5" data-name="Rectángulo 5" transform="matrix(0.951, 0.309, -0.309, 0.951, 1223.073, 111.048)" fill="none" stroke="#8d0000" stroke-width="4">
      <rect width="191" height="221" stroke="none"/>
      <rect x="2" y="2" width="187" height="217" fill="none"/>
    </g>
    <g id="Rectángulo_6" data-name="Rectángulo 6" transform="matrix(0.951, 0.309, -0.309, 0.951, 1223.073, 111.048)" fill="none" stroke="#8d0000" stroke-width="4">
      <rect width="191" height="221" stroke="none"/>
      <rect x="2" y="2" width="187" height="217" fill="none"/>
    </g>
    <g id="Rectángulo_7" data-name="Rectángulo 7" transform="matrix(0.998, 0.07, -0.07, 0.998, 1544.511, 147.2)" fill="none" stroke="#8d0000" stroke-width="4">
      <rect width="138" height="131" stroke="none"/>
      <rect x="2" y="2" width="134" height="127" fill="none"/>
    </g>
    <g id="Rectángulo_8" data-name="Rectángulo 8" transform="matrix(0.719, 0.695, -0.695, 0.719, 1626.64, 380.305)" fill="none" stroke="#8d0000" stroke-width="4">
      <rect width="138" height="131" stroke="none"/>
      <rect x="2" y="2" width="134" height="127" fill="none"/>
    </g>
    <g id="Rectángulo_9" data-name="Rectángulo 9" transform="matrix(0.391, 0.921, -0.921, 0.391, 1866.107, 170.246)" fill="none" stroke="#8d0000" stroke-width="4">
      <rect width="138" height="131" stroke="none"/>
      <rect x="2" y="2" width="134" height="127" fill="none"/>
    </g>
    <g id="Rectángulo_10" data-name="Rectángulo 10" transform="matrix(0.809, 0.588, -0.588, 0.809, 1203.582, 772.82)" fill="none" stroke="#8d0000" stroke-width="4">
      <rect width="13" height="14" stroke="none"/>
      <rect x="2" y="2" width="9" height="10" fill="none"/>
    </g>
    <g id="Rectángulo_11" data-name="Rectángulo 11" transform="matrix(0.809, 0.588, -0.588, 0.809, 1212.582, 800.82)" fill="none" stroke="#8d0000" stroke-width="4">
      <rect width="13" height="14" stroke="none"/>
      <rect x="2" y="2" width="9" height="10" fill="none"/>
    </g>
    <g id="Rectángulo_12" data-name="Rectángulo 12" transform="matrix(0.809, 0.588, -0.588, 0.809, 1377.582, 781.82)" fill="none" stroke="#8d0000" stroke-width="4">
      <rect width="13" height="14" stroke="none"/>
      <rect x="2" y="2" width="9" height="10" fill="none"/>
    </g>
    <g id="Rectángulo_13" data-name="Rectángulo 13" transform="matrix(0.809, 0.588, -0.588, 0.809, 1577.582, 745.82)" fill="none" stroke="#8d0000" stroke-width="4">
      <rect width="13" height="14" stroke="none"/>
      <rect x="2" y="2" width="9" height="10" fill="none"/>
    </g>
    <g id="Rectángulo_14" data-name="Rectángulo 14" transform="matrix(0.809, 0.588, -0.588, 0.809, 1577.582, 745.82)" fill="none" stroke="#8d0000" stroke-width="4">
      <rect width="13" height="14" stroke="none"/>
      <rect x="2" y="2" width="9" height="10" fill="none"/>
    </g>
    <g id="Rectángulo_15" data-name="Rectángulo 15" transform="matrix(0.809, 0.588, -0.588, 0.809, 1586.582, 837.82)" fill="none" stroke="#8d0000" stroke-width="4">
      <rect width="13" height="14" stroke="none"/>
      <rect x="2" y="2" width="9" height="10" fill="none"/>
    </g>
    <g id="Rectángulo_16" data-name="Rectángulo 16" transform="matrix(0.809, 0.588, -0.588, 0.809, 1612.582, 788.82)" fill="none" stroke="#8d0000" stroke-width="4">
      <rect width="13" height="14" stroke="none"/>
      <rect x="2" y="2" width="9" height="10" fill="none"/>
    </g>
    <g id="Rectángulo_17" data-name="Rectángulo 17" transform="matrix(0.809, 0.588, -0.588, 0.809, 1537.582, 650.82)" fill="none" stroke="#8d0000" stroke-width="4">
      <rect width="13" height="14" stroke="none"/>
      <rect x="2" y="2" width="9" height="10" fill="none"/>
    </g>
    <g id="Rectángulo_18" data-name="Rectángulo 18" transform="matrix(0.809, 0.588, -0.588, 0.809, 1403.582, 560.82)" fill="none" stroke="#8d0000" stroke-width="4">
      <rect width="13" height="14" stroke="none"/>
      <rect x="2" y="2" width="9" height="10" fill="none"/>
    </g>
  </g>
</svg>
